<svg xmlns="http://www.w3.org/2000/svg" viewBox="0 0 400 300" fill="none" role="img" aria-label="Brosur dan flyer BisaPrint">
  <rect width="400" height="300" fill="#F8FAFC" rx="16"/>
  <rect x="80" y="60" width="120" height="180" rx="12" fill="#ffffff" stroke="#E2E8F0" stroke-width="2"/>
  <rect x="100" y="90" width="80" height="60" rx="8" fill="#F1F5F9" stroke="#E2E8F0" stroke-width="2"/>
  <rect x="100" y="160" width="80" height="8" rx="4" fill="#E2E8F0"/>
  <rect x="100" y="175" width="60" height="8" rx="4" fill="#E2E8F0"/>
  <rect x="100" y="190" width="70" height="8" rx="4" fill="#E2E8F0"/>
  <rect x="220" y="60" width="120" height="180" rx="12" fill="#ffffff" stroke="#E2E8F0" stroke-width="2" transform="rotate(6 280 150)"/>
  <circle cx="250" cy="110" r="24" fill="#F1F5F9" stroke="#E2E8F0" stroke-width="2"/>
  <path d="M240 110l7 7 13-14" stroke="#DE127A" stroke-width="3" stroke-linecap="round" stroke-linejoin="round"/>
  <rect x="240" y="150" width="80" height="8" rx="4" fill="#E2E8F0"/>
  <rect x="240" y="165" width="60" height="8" rx="4" fill="#E2E8F0"/>
  <rect x="240" y="180" width="70" height="8" rx="4" fill="#E2E8F0"/>
</svg>
