<svg xmlns="http://www.w3.org/2000/svg" viewBox="0 0 400 300" fill="none" role="img" aria-label="Sablon DTF kaos BisaPrint">
  <rect width="400" height="300" fill="#F8FAFC" rx="16"/>
  <path d="M130 80h140v160h-140z" fill="#ffffff" stroke="#E2E8F0" stroke-width="2" rx="12" transform="translate(0 0)"/>
  <path d="M130 80c-20 20-40 30-50 40l30 30 20-15 70 80 30-25 50-50-20-35-20 15-20-20-70-10z" fill="#ffffff" stroke="#E2E8F0" stroke-width="2"/>
  <rect x="150" y="90" width="100" height="120" rx="8" fill="#F1F5F9" stroke="#E2E8F0" stroke-width="2"/>
  <circle cx="200" cy="140" r="30" fill="#DE127A" opacity="0.15" stroke="#DE127A" stroke-width="2"/>
  <path d="M185 140l10 10 20-20" stroke="#DE127A" stroke-width="3" stroke-linecap="round" stroke-linejoin="round"/>
  <rect x="130" y="210" width="140" height="8" rx="4" fill="#E2E8F0"/>
  <rect x="280" y="100" width="80" height="100" rx="8" fill="#ffffff" stroke="#E2E8F0" stroke-width="2" transform="rotate(6 320 150)"/>
  <rect x="290" y="120" width="60" height="40" rx="4" fill="#F1F5F9" stroke="#E2E8F0" stroke-width="2" transform="rotate(6 320 150)"/>
  <circle cx="320" cy="155" r="14" fill="#E87817" opacity="0.2" transform="rotate(6 320 150)"/>
</svg>
