<svg xmlns="http://www.w3.org/2000/svg" viewBox="0 0 400 300" fill="none" role="img" aria-label="Jilid skripsi dan laporan BisaPrint">
  <rect width="400" height="300" fill="#F8FAFC" rx="16"/>
  <rect x="90" y="70" width="130" height="190" rx="12" fill="#ffffff" stroke="#E2E8F0" stroke-width="2"/>
  <rect x="100" y="80" width="110" height="170" rx="8" fill="#F1F5F9" stroke="#E2E8F0" stroke-width="2"/>
  <rect x="115" y="105" width="80" height="6" rx="3" fill="#0F172A" opacity="0.8"/>
  <rect x="115" y="120" width="80" height="6" rx="3" fill="#0F172A" opacity="0.8"/>
  <rect x="115" y="135" width="80" height="6" rx="3" fill="#0F172A" opacity="0.8"/>
  <rect x="115" y="150" width="60" height="6" rx="3" fill="#0F172A" opacity="0.6"/>
  <rect x="100" y="190" width="110" height="6" rx="3" fill="#E2E8F0"/>
  <rect x="100" y="205" width="110" height="6" rx="3" fill="#E2E8F0"/>
  <rect x="100" y="220" width="80" height="6" rx="3" fill="#E2E8F0"/>
  <rect x="240" y="90" width="110" height="160" rx="10" fill="#DE127A" opacity="0.1" stroke="#DE127A" stroke-width="2"/>
  <rect x="250" y="105" width="90" height="8" rx="4" fill="#DE127A" opacity="0.3"/>
  <rect x="250" y="120" width="90" height="8" rx="4" fill="#DE127A" opacity="0.3"/>
  <rect x="250" y="135" width="70" height="8" rx="4" fill="#DE127A" opacity="0.3"/>
  <circle cx="300" cy="200" r="12" fill="#DE127A" opacity="0.2"/>
</svg>
