<svg xmlns="http://www.w3.org/2000/svg" viewBox="0 0 400 300" fill="none" role="img" aria-label="Kartu nama BisaPrint">
  <rect width="400" height="300" fill="#F8FAFC" rx="16"/>
  <rect x="100" y="110" width="200" height="120" rx="8" fill="#ffffff" stroke="#E2E8F0" stroke-width="2" transform="rotate(-3 200 170)"/>
  <rect x="120" y="135" width="50" height="50" rx="25" fill="#DE127A" opacity="0.15"/>
  <path d="M135 158l10 10 20-20" stroke="#DE127A" stroke-width="3" stroke-linecap="round" stroke-linejoin="round"/>
  <rect x="185" y="140" width="90" height="8" rx="4" fill="#0F172A" opacity="0.8"/>
  <rect x="185" y="155" width="70" height="6" rx="3" fill="#E2E8F0"/>
  <rect x="185" y="170" width="80" height="6" rx="3" fill="#E2E8F0"/>
  <rect x="120" y="200" width="90" height="6" rx="3" fill="#E2E8F0"/>
  <rect x="100" y="75" width="200" height="120" rx="8" fill="#ffffff" stroke="#E2E8F0" stroke-width="2" transform="rotate(6 200 135)"/>
  <rect x="120" y="90" width="40" height="40" rx="20" fill="#E87817" opacity="0.15" transform="rotate(6 200 135)"/>
  <rect x="170" y="95" width="80" height="6" rx="3" fill="#0F172A" opacity="0.8" transform="rotate(6 200 135)"/>
  <rect x="170" y="108" width="60" height="5" rx="2" fill="#E2E8F0" transform="rotate(6 200 135)"/>
</svg>
