<svg xmlns="http://www.w3.org/2000/svg" viewBox="0 0 400 300" fill="none" role="img" aria-label="Print dokumen warna BisaPrint">
  <rect width="400" height="300" fill="#F8FAFC" rx="16"/>
  <rect x="90" y="70" width="160" height="200" rx="12" fill="#ffffff" stroke="#E2E8F0" stroke-width="2"/>
  <rect x="110" y="100" width="120" height="70" rx="8" fill="#F1F5F9" stroke="#E2E8F0" stroke-width="2"/>
  <rect x="120" y="120" width="60" height="8" rx="4" fill="#DE127A"/>
  <rect x="120" y="135" width="90" height="8" rx="4" fill="#E87817"/>
  <rect x="120" y="150" width="70" height="8" rx="4" fill="#0EA5E9"/>
  <rect x="110" y="185" width="120" height="6" rx="3" fill="#E2E8F0"/>
  <rect x="110" y="198" width="120" height="6" rx="3" fill="#E2E8F0"/>
  <rect x="110" y="211" width="120" height="6" rx="3" fill="#E2E8F0"/>
  <rect x="110" y="224" width="80" height="6" rx="3" fill="#E2E8F0"/>
  <rect x="280" y="120" width="60" height="90" rx="8" fill="#ffffff" stroke="#E2E8F0" stroke-width="2" transform="rotate(6 310 165)"/>
  <rect x="290" y="140" width="40" height="5" rx="2" fill="#DE127A" transform="rotate(6 310 165)"/>
  <rect x="290" y="150" width="40" height="5" rx="2" fill="#E87817" transform="rotate(6 310 165)"/>
  <rect x="290" y="160" width="40" height="5" rx="2" fill="#0EA5E9" transform="rotate(6 310 165)"/>
</svg>
