<svg xmlns="http://www.w3.org/2000/svg" viewBox="0 0 400 300" fill="none" role="img" aria-label="Stiker chromo BisaPrint" preserveAspectRatio="xMidYMid slice">
  <rect width="400" height="300" fill="#FDF2F8"/>
  <g transform="translate(96 38) rotate(-5)">
    <rect width="220" height="230" rx="14" fill="#fff" stroke="#E2E8F0" stroke-width="2"/>
    <g transform="translate(20 22)">
      <rect width="80" height="86" rx="14" fill="#DE127A"/>
      <rect x="-4" y="-4" width="88" height="94" rx="17" fill="none" stroke="#DE127A" stroke-width="1.6" stroke-dasharray="5 4" opacity="0.5"/>
      <path d="M40 22l7 14 15 2.2-10.8 10.5 2.6 14.8-13.8-7.2-13.8 7.2 2.6-14.8-10.8-10.5 15-2.2z" fill="#fff"/>
      <rect x="18" y="64" width="44" height="7" rx="3.5" fill="#fff" opacity="0.6"/>
      <rect x="100" width="80" height="86" rx="14" fill="#E87817"/>
      <rect x="96" y="-4" width="88" height="94" rx="17" fill="none" stroke="#E87817" stroke-width="1.6" stroke-dasharray="5 4" opacity="0.5"/>
      <circle cx="140" cy="40" r="18" fill="#fff"/>
      <path d="M133 40l5 5 10-10" stroke="#E87817" stroke-width="3.5" fill="none" stroke-linecap="round"/>
      <rect x="118" y="64" width="44" height="7" rx="3.5" fill="#fff" opacity="0.6"/>
      <rect y="106" width="80" height="86" rx="14" fill="#0F172A"/>
      <rect x="-4" y="102" width="88" height="94" rx="17" fill="none" stroke="#0F172A" stroke-width="1.6" stroke-dasharray="5 4" opacity="0.5"/>
      <path d="M46 124l-14 20h10l-5 18 16-22h-11z" fill="#fff"/>
      <rect x="18" y="170" width="44" height="7" rx="3.5" fill="#fff" opacity="0.5"/>
      <rect x="100" y="106" width="80" height="86" rx="14" fill="#0D9488"/>
      <rect x="96" y="102" width="88" height="94" rx="17" fill="none" stroke="#0D9488" stroke-width="1.6" stroke-dasharray="5 4" opacity="0.5"/>
      <path d="M140 126c-9-10-27-4-27 10 0 11 13 19 27 28 14-9 27-17 27-28 0-14-18-20-27-10z" fill="#fff"/>
      <rect x="118" y="170" width="44" height="7" rx="3.5" fill="#fff" opacity="0.6"/>
    </g>
  </g>
  <g transform="translate(268 220) rotate(8)">
    <rect width="100" height="28" rx="14" fill="#DE127A"/>
    <ellipse cx="12" cy="14" rx="8" ry="11" fill="#FBCFE8"/>
  </g>
</svg>
