<svg xmlns="http://www.w3.org/2000/svg" viewBox="0 0 400 300" fill="none" role="img" aria-label="Undangan BisaPrint" preserveAspectRatio="xMidYMid slice">
  <rect width="400" height="300" fill="#FDF2F8"/>
  <g transform="translate(60 150) rotate(-6)">
    <rect width="180" height="115" rx="10" fill="#F4A261"/>
    <path d="M0 10l90 56 90-56" stroke="#E87817" stroke-width="3" fill="none"/>
  </g>
  <g transform="translate(140 44) rotate(3)">
    <rect width="170" height="215" rx="12" fill="#fff" stroke="#E2E8F0" stroke-width="2"/>
    <rect x="12" y="12" width="146" height="191" rx="8" fill="none" stroke="#DE127A" stroke-width="2" stroke-dasharray="1 6" stroke-linecap="round"/>
    <circle cx="85" cy="52" r="20" fill="#FDE68A"/>
    <path d="M85 39l4.2 8.4 9.3 1.3-6.7 6.5 1.6 9.3-8.4-4.4-8.4 4.4 1.6-9.3-6.7-6.5 9.3-1.3z" fill="#E87817"/>
    <rect x="50" y="84" width="70" height="10" rx="5" fill="#0F172A"/>
    <rect x="42" y="102" width="86" height="6" rx="3" fill="#94A3B8"/>
    <rect x="55" y="114" width="60" height="6" rx="3" fill="#94A3B8"/>
    <rect x="35" y="136" width="100" height="8" rx="4" fill="#DE127A" opacity="0.85"/>
    <rect x="48" y="154" width="74" height="6" rx="3" fill="#CBD5E1"/>
    <rect x="60" y="170" width="50" height="6" rx="3" fill="#CBD5E1"/>
    <rect x="55" y="186" width="60" height="14" rx="7" fill="#FDF2F8" stroke="#DE127A" stroke-width="1.5"/>
  </g>
  <circle cx="70" cy="70" r="14" fill="#DE127A" opacity="0.15"/>
  <circle cx="330" cy="230" r="18" fill="#E87817" opacity="0.2"/>
</svg>
