<svg xmlns="http://www.w3.org/2000/svg" viewBox="0 0 400 400" fill="none" preserveAspectRatio="xMidYMid slice">
  <rect width="400" height="400" fill="#F1F5F9"/>
  <!-- kaos -->
  <g transform="translate(90 90)">
    <path d="M60 10l-55 26 18 44 37-14v140h120V66l37 14 18-44-55-26c-8 16-24 26-40 26s-32-10-40-26z" fill="#0F172A"/>
    <path d="M100 36c16 0 32-10 40-26" stroke="#334155" stroke-width="4" fill="none" stroke-linecap="round"/>
    <!-- sablon DTF -->
    <g transform="translate(80 86)">
      <rect width="80" height="80" rx="14" fill="#DE127A"/>
      <rect x="-4" y="-4" width="88" height="88" rx="17" fill="none" stroke="#fff" stroke-width="1.6" stroke-dasharray="4 4" opacity="0.5"/>
      <path d="M40 18l6.5 13.2 14.5 2.1-10.5 10.2 2.5 14.4-13-6.8-13 6.8 2.5-14.4-10.5-10.2 14.5-2.1z" fill="#fff"/>
      <rect x="18" y="58" width="44" height="7" rx="3.5" fill="#fff" opacity="0.8"/>
    </g>
  </g>
  <!-- totebag -->
  <g transform="translate(290 230)">
    <rect x="8" y="30" width="76" height="90" rx="8" fill="#F4A261"/>
    <path d="M24 30c0-26 44-26 44 0" stroke="#E87817" stroke-width="6" fill="none" stroke-linecap="round"/>
    <circle cx="46" cy="72" r="16" fill="#DE127A"/>
    <path d="M39 72h10M39 77h7" stroke="#fff" stroke-width="2" stroke-linecap="round"/>
  </g>
  <circle cx="70" cy="300" r="20" fill="#DE127A" opacity="0.15"/>
  <text x="200" y="374" text-anchor="middle" font-family="Plus Jakarta Sans, sans-serif" font-size="15" font-weight="700" fill="#334155">Sablon DTF &amp; Merchandise</text>
</svg>
