<svg xmlns="http://www.w3.org/2000/svg" viewBox="0 0 400 400" fill="none" preserveAspectRatio="xMidYMid slice">
  <rect width="400" height="400" fill="#FDF2F8"/>
  <g transform="translate(70 60) rotate(-4)">
    <rect width="260" height="290" rx="14" fill="#fff" stroke="#E2E8F0" stroke-width="2"/>
    <g transform="translate(22 24)">
      <rect width="62" height="72" rx="12" fill="#DE127A"/>
      <path d="M31 20l5.5 11 12 1.8-8.7 8.5 2 12-10.8-5.7-10.8 5.7 2-12-8.7-8.5 12-1.8z" fill="#fff"/>
      <rect x="100" width="62" height="72" rx="12" fill="#E87817"/>
      <circle cx="131" cy="32" r="15" fill="#fff"/>
      <path d="M125 32l5 5 9-9" stroke="#E87817" stroke-width="3" fill="none" stroke-linecap="round"/>
      <rect x="154" y="-0.5" width="62" height="72" rx="12" fill="#0F172A" transform="translate(0 0.5)"/>
      <path d="M191 16l-12 16h9l-4 14 13-17h-9z" fill="#fff"/>
      <rect y="90" width="62" height="72" rx="12" fill="#0D9488"/>
      <path d="M31 112c-9-10-27-4-27 10 0 11 13 19 27 28 14-9 27-17 27-28 0-14-18-20-27-10z" fill="#fff" transform="translate(0 0)"/>
      <rect x="100" y="90" width="62" height="72" rx="12" fill="#F59E0B"/>
      <path d="M121 108h20l-4 30h-12zM121 108a10 10 0 0120 0" fill="#fff"/>
      <rect x="154" y="89.5" width="62" height="72" rx="12" fill="#7C3AED"/>
      <circle cx="185" cy="123" r="14" fill="none" stroke="#fff" stroke-width="4"/>
      <circle cx="185" cy="123" r="6" fill="#fff"/>
      <rect y="180" width="62" height="72" rx="12" fill="#DE127A" opacity="0.85"/>
      <rect x="18" y="202" width="26" height="26" rx="13" fill="#fff"/>
      <rect x="100" y="180" width="62" height="72" rx="12" fill="#0F172A" opacity="0.9"/>
      <path d="M125 206h12M125 216h18M125 226h10" stroke="#fff" stroke-width="4" stroke-linecap="round"/>
      <rect x="154" y="179.5" width="62" height="72" rx="12" fill="#E87817" opacity="0.9"/>
      <path d="M172 202h26M172 214h26M172 226h16" stroke="#fff" stroke-width="4" stroke-linecap="round"/>
    </g>
  </g>
  <rect x="0" y="330" width="400" height="70" fill="#DE127A" opacity="0.06"/>
  <text x="200" y="366" text-anchor="middle" font-family="Plus Jakarta Sans, sans-serif" font-size="15" font-weight="700" fill="#9D174D">Cetak Stiker Die-Cut</text>
</svg>
